<svg class="svg-icon" style="width: 1em; height: 1em;vertical-align: middle;fill: currentColor;overflow: hidden;" viewBox="0 0 1024 1024" version="1.1" xmlns="http://www.w3.org/2000/svg"><path d="M512 0C229.2 0 0 229.2 0 512s229.2 512 512 512 512-229.2 512-512S794.8 0 512 0z m324.4 541.8c-0.1 2.5-0.8 4.8-1.7 6.9l-0.7 9.3-8.9 3.6c-32 13.1-66.5 23.8-102.8 32 1.4 27.1 1.4 55.5 1.4 84.7 0 146.1-72.6 217.1-222.1 217.1-83.4 0-141.7-21.9-178.4-66.8-11.9-14.6-21.1-32.5-27.6-53.2l-7.2-23.1c-2.7-8.8-4.5-16.2-5.5-23.5-2.2-15.6-3.4-32.6-3.4-50.4l1.5-54.8c0.9-15.6 2.3-31.9 4.5-48.3-42.1-14.2-80.5-32.1-113.8-53.5L164 517l0.4-8.9C172.6 328.6 319.9 188 499.8 188c133.4 0 248.9 78.3 303 191.3 21.7 44.4 33.9 94.2 33.9 146.9 0.1 5.2-0.1 10.4-0.3 15.6z" fill="#FFF6D2" /><path d="M312.7 678.4c0-32 2.3-63.3 6.5-92.8-1.1-0.3-2.3-0.6-3.4-0.9-1.6 12.8-2.9 26-3.7 40.3l-1.4 53.9c0 16 1 31.4 3.1 45.6 0.4 2.5 0.9 5.1 1.5 7.8-1.8-16.3-2.6-34.2-2.6-53.9z" fill="#E5DBB1" /><path d="M320.7 553.4c1 0.3 2 0.6 3.1 0.9 1.5-12.9 3.5-25.2 6.1-37-3.6 11.2-6.7 23.2-9.2 36.1zM312.3 476.1c-36.2 8.7-69.5 20.4-98.2 34.8 23.3 12.6 49 23.7 76.5 33.1 4.8-23.5 11.7-46.6 21.7-67.9zM311.7 288.2c-59.5 47.4-101.2 116.5-112.3 195.3 5.5-2.8 11.3-5.4 17.1-8 7.3-74.4 42.5-140.6 95.2-187.3zM707.6 499.7c6.1 19.4 9.9 40.3 12.3 62.6 22.2-5.2 43.6-11.4 64.1-18.5-20.4-16.8-46.3-31.7-76.4-44.1z" fill="#FFFFFF" /><path d="M499.8 187.9C320 187.9 172.6 328.5 164.4 508l-0.4 9 7.5 4.8c33.4 21.4 71.7 39.3 113.8 53.5-2.2 16.5-3.6 32.7-4.5 48.3l-1.5 54.8c0 17.9 1.1 34.8 3.4 50.4 1 7.3 2.8 14.8 5.5 23.5l7.2 23.1c6.5 20.7 15.8 38.7 27.6 53.2 36.6 45 95 66.8 178.4 66.8 149.4 0 222.1-71 222.1-217.1 0-29.2 0-57.7-1.4-84.7 36.3-8.2 70.8-18.9 102.8-32l8.9-3.6 0.7-9.3c0.9-2.1 1.6-4.4 1.7-6.9 0.2-5.2 0.4-10.5 0.4-15.8 0-52.6-12.2-102.5-33.9-146.9-54-112.9-169.4-191.2-302.9-191.2zM311.7 288.2c2.5-2 5.1-3.9 7.7-5.8 25.1-18.8 53.1-33.8 83.1-44.2 31.1-10.8 64.3-16.7 98.6-16.7 5.7 0 11.3 0.2 16.9 0.5 52.4 2.9 101.2 19.1 143.3 45.2 84.9 52.7 142.1 145.8 144.4 252.3-1.7-0.9-3.3-1.7-4.9-2.2-6-4.8-12.6-9.4-19.3-13.9-48.2-32-114.2-55.4-189.5-67.4-37.7-6-77.6-9.2-118.7-9.2-8.2 0-16.3 0.2-24.4 0.4-86.3 2.7-168.2 19.8-232.4 48.4-5.8 2.6-11.6 5.2-17.1 8 11-78.9 52.8-148 112.3-195.4z m0.6 187.9c-10 21.3-17 44.4-21.7 67.9-27.5-9.5-53.2-20.5-76.5-33.1 28.7-14.4 62-26.1 98.2-34.8z m395.3 23.6c30.1 12.4 56 27.3 76.4 44.1-20.5 7.1-41.9 13.3-64.1 18.5-2.4-22.2-6.2-43.2-12.3-62.6z m-397 179.2L312 625c0.8-14.2 2.2-27.5 3.7-40.3 1.1 0.3 2.3 0.6 3.4 0.9 1.1-7.4 2.2-14.7 3.5-21.9 0.3-3.2 0.7-6.3 1.1-9.4-1-0.3-2.1-0.6-3.1-0.9 2.5-12.9 5.6-24.9 9.2-36.1 4.3-13.6 9.4-25.8 15.3-36.8 2.4-4.4 4.9-8.7 7.5-12.7 38.2-6.6 78.9-10.1 120.4-10.1 51.1 0 100.7 5.3 145.9 15 17.3 3.7 34 8.1 49.9 13.1 23.6 47.3 23.6 113.3 23.6 192.6 0 92.5-30.7 147.9-96.9 171.9-25.9 9.4-57 14.1-94.1 14.1-73.4 0-123.9-18.1-154.3-55.4-9.3-11.5-16.8-25.9-22-42.8l-7.2-23.1c-1.2-4-2.2-7.5-2.9-10.9-0.6-2.7-1.2-5.3-1.5-7.8-1.9-14.1-2.9-29.6-2.9-45.5z" fill="" /><path d="M345.2 480.5c-5.9 11-11 23.3-15.3 36.8-2.6 11.8-4.6 24.2-6.1 37-0.4 3.1-0.7 6.2-1.1 9.4 5.5-30.5 13.2-58.7 22.5-83.2zM649.2 678.4c0 90.7-17.5 143.3-53.5 171.9 66.2-24 96.9-79.4 96.9-171.9 0-79.4 0-145.3-23.6-192.6-15.9-5-32.5-9.4-49.9-13.1 29.2 51.6 30.1 123.3 30.1 205.7z" fill="#F9C082" /><path d="M315.2 732.3c0.8 3.4 1.7 6.9 2.9 10.9l7.2 23.1c5.3 16.9 12.7 31.4 22 42.8 30.4 37.3 80.8 55.4 154.3 55.4 37.1 0 68.2-4.7 94.1-14.1 36-28.6 53.5-81.2 53.5-171.9 0-82.4-0.9-154.2-30.1-205.7-45.2-9.7-94.8-15-145.9-15-41.5 0-82.2 3.5-120.4 10.1-2.6 4-5.1 8.3-7.5 12.7-9.3 24.4-17 52.6-22.5 83.2-1.3 7.2-2.4 14.5-3.5 21.9-4.2 29.5-6.5 60.8-6.5 92.8-0.1 19.6 0.7 37.5 2.4 53.8zM441 645.5c-11.8 0-21.4-9.6-21.4-21.4s9.6-21.4 21.4-21.4 21.4 9.6 21.4 21.4-9.6 21.4-21.4 21.4z m90.5 43.8c0 16.8-13.7 30.5-30.5 30.5s-30.5-13.7-30.5-30.5v-11.4c0-6.5 5.3-11.7 11.7-11.7h37.5c6.5 0 11.7 5.3 11.7 11.7v11.4z m52.1-65.2c0 11.8-9.6 21.4-21.4 21.4-11.8 0-21.4-9.6-21.4-21.4s9.6-21.4 21.4-21.4c11.8 0 21.4 9.6 21.4 21.4z" fill="#FCE6CA" /><path d="M781.4 499.9v3.4c6.8 4.5 13.3 9.1 19.3 13.9 1.6 0.5 3.2 1.2 4.9 2.2-2.3-106.5-59.6-199.6-144.4-252.3-0.4 0.6-0.8 1.2-1.2 1.7 71.9 51 119.7 135.1 121.4 231.1z" fill="#C68910" /><path d="M216.4 475.5c64.2-28.6 146.1-45.7 232.4-48.4 5.2-29 35.4-51.3 72-51.3 40.3 0 72.9 26.9 72.9 60.1h-1.8c75.3 12 141.4 35.4 189.5 67.4v-3.4c-1.7-95.9-49.5-180.1-121.5-231.1-18.2 25.1-54.1 35.7-88.2 23.6-32.9-11.6-53.9-40.7-53.8-70.5-5.6-0.3-11.2-0.5-16.9-0.5-34.3 0-67.5 5.9-98.6 16.7 9.4 8.1 15.3 19.5 15.3 32 0 24.7-22.5 44.7-50.2 44.7-23 0-42.1-13.8-48.1-32.6-2.6 1.9-5.1 3.8-7.7 5.8-52.7 46.9-87.9 113.1-95.3 187.5z m79.7-97.8c-3.9 11.1-7.1 24.5-9.5 40-1.2 7.7-7.8 13.2-15.3 13.2-0.8 0-1.6-0.1-2.4-0.2-8.5-1.3-14.3-9.3-13-17.8 2.7-17.3 6.4-32.7 10.9-45.5 2.9-8.1 11.8-12.3 19.8-9.5 8.1 2.8 12.4 11.7 9.5 19.8z m38.2-46.7c-0.6 8.1-7.4 14.4-15.5 14.4-0.8 0.2-4.5 1.3-9.4 7.1-3.1 3.6-7.5 5.5-11.9 5.5-3.6 0-7.1-1.2-10-3.7-6.5-5.6-7.4-15.4-1.8-21.9 15.6-18.4 31.3-18.2 34.3-18 8.6 0.6 15 8 14.3 16.6z" fill="#F7B746" /><path d="M367.4 314.9c27.8 0 50.2-20 50.2-44.7 0-12.6-5.9-23.9-15.3-32-30 10.4-58 25.4-83.1 44.2 6.1 18.7 25.3 32.5 48.2 32.5zM571.7 292.4c34.1 12.1 70 1.5 88.2-23.6 0.4-0.6 0.8-1.1 1.2-1.7-42.1-26.1-90.9-42.3-143.3-45.2 0.1 29.8 21.1 58.9 53.9 70.5zM520.8 375.8c-36.6 0-66.8 22.3-72 51.3 8.1-0.3 16.2-0.4 24.4-0.4 41.1 0 81 3.2 118.7 9.2h1.8c0-33.2-32.7-60.1-72.9-60.1z" fill="#C17906" /><path d="M441 624.1m-21.4 0a21.4 21.4 0 1 0 42.8 0 21.4 21.4 0 1 0-42.8 0Z" fill="" /><path d="M562.2 624.1m-21.4 0a21.4 21.4 0 1 0 42.8 0 21.4 21.4 0 1 0-42.8 0Z" fill="" /><path d="M521.2 689.3v-11.4c0-0.7-0.6-1.4-1.4-1.4h-37.5c-0.7 0-1.4 0.6-1.4 1.4v11.4c0 11.1 9 20.2 20.1 20.2 11.1 0 20.2-9.1 20.2-20.2z" fill="#F74376" /><path d="M519.8 666.2h-37.5c-6.5 0-11.7 5.3-11.7 11.7v11.4c0 16.8 13.7 30.5 30.5 30.5s30.5-13.7 30.5-30.5v-11.4c-0.1-6.4-5.3-11.7-11.8-11.7z m-38.9 23.1v-11.4c0-0.7 0.6-1.4 1.4-1.4h37.5c0.8 0 1.4 0.6 1.4 1.4v11.4c0 11.1-9 20.2-20.2 20.2-11.1 0-20.1-9.1-20.1-20.2z" fill="#020202" /><path d="M286.6 357.9c-8.1-2.9-17 1.4-19.8 9.5-4.6 12.9-8.2 28.2-10.9 45.5-1.3 8.5 4.5 16.4 13 17.8 0.8 0.1 1.6 0.2 2.4 0.2 7.5 0 14.1-5.5 15.3-13.2 2.4-15.4 5.6-28.9 9.5-40 2.9-8.1-1.4-17-9.5-19.8zM285.7 332.3c-5.5 6.5-4.7 16.4 1.8 21.9 2.9 2.5 6.5 3.7 10 3.7 4.4 0 8.8-1.9 11.9-5.5 4.9-5.8 8.7-6.9 9.4-7.1 8 0 14.8-6.2 15.5-14.4 0.6-8.6-5.8-16-14.3-16.7-3-0.1-18.7-0.3-34.3 18.1z" fill="#FFFFFF" /></svg>